<?xml version="1.0" encoding="utf-8" standalone="no"?>
<!DOCTYPE svg PUBLIC "-//W3C//DTD SVG 1.1//EN"
  "http://www.w3.org/Graphics/SVG/1.1/DTD/svg11.dtd">
<!-- Created with matplotlib (https://matplotlib.org/) -->
<svg height="388.128pt" version="1.1" viewBox="0 0 1725.461875 388.128" width="1725.461875pt" xmlns="http://www.w3.org/2000/svg" xmlns:xlink="http://www.w3.org/1999/xlink">
 <defs>
  <style type="text/css">
*{stroke-linecap:butt;stroke-linejoin:round;}
  </style>
 </defs>
 <g id="figure_1">
  <g id="patch_1">
   <path d="M 0 388.128 
L 1725.461875 388.128 
L 1725.461875 -0 
L 0 -0 
z
" style="fill:#ffffff;"/>
  </g>
  <g id="axes_1">
   <g id="patch_2">
    <path d="M 44.261875 320.4 
L 1718.261875 320.4 
L 1718.261875 43.2 
L 44.261875 43.2 
z
" style="fill:#ffffff;"/>
   </g>
   <g id="matplotlib.axis_1">
    <g id="xtick_1">
     <g id="line2d_1">
      <defs>
       <path d="M 0 0 
L 0 -3.5 
" id="maa610872eb" style="stroke:#000000;stroke-width:0.8;"/>
      </defs>
      <g>
       <use style="stroke:#000000;stroke-width:0.8;" x="120.352784" xlink:href="#maa610872eb" y="320.4"/>
      </g>
     </g>
     <g id="text_1">
      <!-- 1 -->
      <defs>
       <path d="M 12.40625 8.296875 
L 28.515625 8.296875 
L 28.515625 63.921875 
L 10.984375 60.40625 
L 10.984375 69.390625 
L 28.421875 72.90625 
L 38.28125 72.90625 
L 38.28125 8.296875 
L 54.390625 8.296875 
L 54.390625 0 
L 12.40625 0 
z
" id="DejaVuSans-49"/>
      </defs>
      <g transform="translate(117.171534 331.498437)scale(0.1 -0.1)">
       <use xlink:href="#DejaVuSans-49"/>
      </g>
     </g>
    </g>
    <g id="xtick_2">
     <g id="line2d_2">
      <g>
       <use style="stroke:#000000;stroke-width:0.8;" x="190.677099" xlink:href="#maa610872eb" y="320.4"/>
      </g>
     </g>
     <g id="text_2">
      <!-- 26 -->
      <defs>
       <path d="M 19.1875 8.296875 
L 53.609375 8.296875 
L 53.609375 0 
L 7.328125 0 
L 7.328125 8.296875 
Q 12.9375 14.109375 22.625 23.890625 
Q 32.328125 33.6875 34.8125 36.53125 
Q 39.546875 41.84375 41.421875 45.53125 
Q 43.3125 49.21875 43.3125 52.78125 
Q 43.3125 58.59375 39.234375 62.25 
Q 35.15625 65.921875 28.609375 65.921875 
Q 23.96875 65.921875 18.8125 64.3125 
Q 13.671875 62.703125 7.8125 59.421875 
L 7.8125 69.390625 
Q 13.765625 71.78125 18.9375 73 
Q 24.125 74.21875 28.421875 74.21875 
Q 39.75 74.21875 46.484375 68.546875 
Q 53.21875 62.890625 53.21875 53.421875 
Q 53.21875 48.921875 51.53125 44.890625 
Q 49.859375 40.875 45.40625 35.40625 
Q 44.1875 33.984375 37.640625 27.21875 
Q 31.109375 20.453125 19.1875 8.296875 
z
" id="DejaVuSans-50"/>
       <path d="M 33.015625 40.375 
Q 26.375 40.375 22.484375 35.828125 
Q 18.609375 31.296875 18.609375 23.390625 
Q 18.609375 15.53125 22.484375 10.953125 
Q 26.375 6.390625 33.015625 6.390625 
Q 39.65625 6.390625 43.53125 10.953125 
Q 47.40625 15.53125 47.40625 23.390625 
Q 47.40625 31.296875 43.53125 35.828125 
Q 39.65625 40.375 33.015625 40.375 
z
M 52.59375 71.296875 
L 52.59375 62.3125 
Q 48.875 64.0625 45.09375 64.984375 
Q 41.3125 65.921875 37.59375 65.921875 
Q 27.828125 65.921875 22.671875 59.328125 
Q 17.53125 52.734375 16.796875 39.40625 
Q 19.671875 43.65625 24.015625 45.921875 
Q 28.375 48.1875 33.59375 48.1875 
Q 44.578125 48.1875 50.953125 41.515625 
Q 57.328125 34.859375 57.328125 23.390625 
Q 57.328125 12.15625 50.6875 5.359375 
Q 44.046875 -1.421875 33.015625 -1.421875 
Q 20.359375 -1.421875 13.671875 8.265625 
Q 6.984375 17.96875 6.984375 36.375 
Q 6.984375 53.65625 15.1875 63.9375 
Q 23.390625 74.21875 37.203125 74.21875 
Q 40.921875 74.21875 44.703125 73.484375 
Q 48.484375 72.75 52.59375 71.296875 
z
" id="DejaVuSans-54"/>
      </defs>
      <g transform="translate(184.314599 331.498437)scale(0.1 -0.1)">
       <use xlink:href="#DejaVuSans-50"/>
       <use x="63.623047" xlink:href="#DejaVuSans-54"/>
      </g>
     </g>
    </g>
    <g id="xtick_3">
     <g id="line2d_3">
      <g>
       <use style="stroke:#000000;stroke-width:0.8;" x="261.001415" xlink:href="#maa610872eb" y="320.4"/>
      </g>
     </g>
     <g id="text_3">
      <!-- 51 -->
      <defs>
       <path d="M 10.796875 72.90625 
L 49.515625 72.90625 
L 49.515625 64.59375 
L 19.828125 64.59375 
L 19.828125 46.734375 
Q 21.96875 47.46875 24.109375 47.828125 
Q 26.265625 48.1875 28.421875 48.1875 
Q 40.625 48.1875 47.75 41.5 
Q 54.890625 34.8125 54.890625 23.390625 
Q 54.890625 11.625 47.5625 5.09375 
Q 40.234375 -1.421875 26.90625 -1.421875 
Q 22.3125 -1.421875 17.546875 -0.640625 
Q 12.796875 0.140625 7.71875 1.703125 
L 7.71875 11.625 
Q 12.109375 9.234375 16.796875 8.0625 
Q 21.484375 6.890625 26.703125 6.890625 
Q 35.15625 6.890625 40.078125 11.328125 
Q 45.015625 15.765625 45.015625 23.390625 
Q 45.015625 31 40.078125 35.4375 
Q 35.15625 39.890625 26.703125 39.890625 
Q 22.75 39.890625 18.8125 39.015625 
Q 14.890625 38.140625 10.796875 36.28125 
z
" id="DejaVuSans-53"/>
      </defs>
      <g transform="translate(254.638915 331.498437)scale(0.1 -0.1)">
       <use xlink:href="#DejaVuSans-53"/>
       <use x="63.623047" xlink:href="#DejaVuSans-49"/>
      </g>
     </g>
    </g>
    <g id="xtick_4">
     <g id="line2d_4">
      <g>
       <use style="stroke:#000000;stroke-width:0.8;" x="331.32573" xlink:href="#maa610872eb" y="320.4"/>
      </g>
     </g>
     <g id="text_4">
      <!-- 76 -->
      <defs>
       <path d="M 8.203125 72.90625 
L 55.078125 72.90625 
L 55.078125 68.703125 
L 28.609375 0 
L 18.3125 0 
L 43.21875 64.59375 
L 8.203125 64.59375 
z
" id="DejaVuSans-55"/>
      </defs>
      <g transform="translate(324.96323 331.498437)scale(0.1 -0.1)">
       <use xlink:href="#DejaVuSans-55"/>
       <use x="63.623047" xlink:href="#DejaVuSans-54"/>
      </g>
     </g>
    </g>
    <g id="xtick_5">
     <g id="line2d_5">
      <g>
       <use style="stroke:#000000;stroke-width:0.8;" x="401.650045" xlink:href="#maa610872eb" y="320.4"/>
      </g>
     </g>
     <g id="text_5">
      <!-- 101 -->
      <defs>
       <path d="M 31.78125 66.40625 
Q 24.171875 66.40625 20.328125 58.90625 
Q 16.5 51.421875 16.5 36.375 
Q 16.5 21.390625 20.328125 13.890625 
Q 24.171875 6.390625 31.78125 6.390625 
Q 39.453125 6.390625 43.28125 13.890625 
Q 47.125 21.390625 47.125 36.375 
Q 47.125 51.421875 43.28125 58.90625 
Q 39.453125 66.40625 31.78125 66.40625 
z
M 31.78125 74.21875 
Q 44.046875 74.21875 50.515625 64.515625 
Q 56.984375 54.828125 56.984375 36.375 
Q 56.984375 17.96875 50.515625 8.265625 
Q 44.046875 -1.421875 31.78125 -1.421875 
Q 19.53125 -1.421875 13.0625 8.265625 
Q 6.59375 17.96875 6.59375 36.375 
Q 6.59375 54.828125 13.0625 64.515625 
Q 19.53125 74.21875 31.78125 74.21875 
z
" id="DejaVuSans-48"/>
      </defs>
      <g transform="translate(392.106295 331.498437)scale(0.1 -0.1)">
       <use xlink:href="#DejaVuSans-49"/>
       <use x="63.623047" xlink:href="#DejaVuSans-48"/>
       <use x="127.246094" xlink:href="#DejaVuSans-49"/>
      </g>
     </g>
    </g>
    <g id="xtick_6">
     <g id="line2d_6">
      <g>
       <use style="stroke:#000000;stroke-width:0.8;" x="471.97436" xlink:href="#maa610872eb" y="320.4"/>
      </g>
     </g>
     <g id="text_6">
      <!-- 126 -->
      <g transform="translate(462.43061 331.498437)scale(0.1 -0.1)">
       <use xlink:href="#DejaVuSans-49"/>
       <use x="63.623047" xlink:href="#DejaVuSans-50"/>
       <use x="127.246094" xlink:href="#DejaVuSans-54"/>
      </g>
     </g>
    </g>
    <g id="xtick_7">
     <g id="line2d_7">
      <g>
       <use style="stroke:#000000;stroke-width:0.8;" x="542.298676" xlink:href="#maa610872eb" y="320.4"/>
      </g>
     </g>
     <g id="text_7">
      <!-- 151 -->
      <g transform="translate(532.754926 331.498437)scale(0.1 -0.1)">
       <use xlink:href="#DejaVuSans-49"/>
       <use x="63.623047" xlink:href="#DejaVuSans-53"/>
       <use x="127.246094" xlink:href="#DejaVuSans-49"/>
      </g>
     </g>
    </g>
    <g id="xtick_8">
     <g id="line2d_8">
      <g>
       <use style="stroke:#000000;stroke-width:0.8;" x="612.622991" xlink:href="#maa610872eb" y="320.4"/>
      </g>
     </g>
     <g id="text_8">
      <!-- 176 -->
      <g transform="translate(603.079241 331.498437)scale(0.1 -0.1)">
       <use xlink:href="#DejaVuSans-49"/>
       <use x="63.623047" xlink:href="#DejaVuSans-55"/>
       <use x="127.246094" xlink:href="#DejaVuSans-54"/>
      </g>
     </g>
    </g>
    <g id="xtick_9">
     <g id="line2d_9">
      <g>
       <use style="stroke:#000000;stroke-width:0.8;" x="682.947306" xlink:href="#maa610872eb" y="320.4"/>
      </g>
     </g>
     <g id="text_9">
      <!-- 201 -->
      <g transform="translate(673.403556 331.498437)scale(0.1 -0.1)">
       <use xlink:href="#DejaVuSans-50"/>
       <use x="63.623047" xlink:href="#DejaVuSans-48"/>
       <use x="127.246094" xlink:href="#DejaVuSans-49"/>
      </g>
     </g>
    </g>
    <g id="xtick_10">
     <g id="line2d_10">
      <g>
       <use style="stroke:#000000;stroke-width:0.8;" x="753.271621" xlink:href="#maa610872eb" y="320.4"/>
      </g>
     </g>
     <g id="text_10">
      <!-- 226 -->
      <g transform="translate(743.727871 331.498437)scale(0.1 -0.1)">
       <use xlink:href="#DejaVuSans-50"/>
       <use x="63.623047" xlink:href="#DejaVuSans-50"/>
       <use x="127.246094" xlink:href="#DejaVuSans-54"/>
      </g>
     </g>
    </g>
    <g id="xtick_11">
     <g id="line2d_11">
      <g>
       <use style="stroke:#000000;stroke-width:0.8;" x="823.595937" xlink:href="#maa610872eb" y="320.4"/>
      </g>
     </g>
     <g id="text_11">
      <!-- 251 -->
      <g transform="translate(814.052187 331.498437)scale(0.1 -0.1)">
       <use xlink:href="#DejaVuSans-50"/>
       <use x="63.623047" xlink:href="#DejaVuSans-53"/>
       <use x="127.246094" xlink:href="#DejaVuSans-49"/>
      </g>
     </g>
    </g>
    <g id="xtick_12">
     <g id="line2d_12">
      <g>
       <use style="stroke:#000000;stroke-width:0.8;" x="893.920252" xlink:href="#maa610872eb" y="320.4"/>
      </g>
     </g>
     <g id="text_12">
      <!-- 276 -->
      <g transform="translate(884.376502 331.498437)scale(0.1 -0.1)">
       <use xlink:href="#DejaVuSans-50"/>
       <use x="63.623047" xlink:href="#DejaVuSans-55"/>
       <use x="127.246094" xlink:href="#DejaVuSans-54"/>
      </g>
     </g>
    </g>
    <g id="xtick_13">
     <g id="line2d_13">
      <g>
       <use style="stroke:#000000;stroke-width:0.8;" x="964.244567" xlink:href="#maa610872eb" y="320.4"/>
      </g>
     </g>
     <g id="text_13">
      <!-- 301 -->
      <defs>
       <path d="M 40.578125 39.3125 
Q 47.65625 37.796875 51.625 33 
Q 55.609375 28.21875 55.609375 21.1875 
Q 55.609375 10.40625 48.1875 4.484375 
Q 40.765625 -1.421875 27.09375 -1.421875 
Q 22.515625 -1.421875 17.65625 -0.515625 
Q 12.796875 0.390625 7.625 2.203125 
L 7.625 11.71875 
Q 11.71875 9.328125 16.59375 8.109375 
Q 21.484375 6.890625 26.8125 6.890625 
Q 36.078125 6.890625 40.9375 10.546875 
Q 45.796875 14.203125 45.796875 21.1875 
Q 45.796875 27.640625 41.28125 31.265625 
Q 36.765625 34.90625 28.71875 34.90625 
L 20.21875 34.90625 
L 20.21875 43.015625 
L 29.109375 43.015625 
Q 36.375 43.015625 40.234375 45.921875 
Q 44.09375 48.828125 44.09375 54.296875 
Q 44.09375 59.90625 40.109375 62.90625 
Q 36.140625 65.921875 28.71875 65.921875 
Q 24.65625 65.921875 20.015625 65.03125 
Q 15.375 64.15625 9.8125 62.3125 
L 9.8125 71.09375 
Q 15.4375 72.65625 20.34375 73.4375 
Q 25.25 74.21875 29.59375 74.21875 
Q 40.828125 74.21875 47.359375 69.109375 
Q 53.90625 64.015625 53.90625 55.328125 
Q 53.90625 49.265625 50.4375 45.09375 
Q 46.96875 40.921875 40.578125 39.3125 
z
" id="DejaVuSans-51"/>
      </defs>
      <g transform="translate(954.700817 331.498437)scale(0.1 -0.1)">
       <use xlink:href="#DejaVuSans-51"/>
       <use x="63.623047" xlink:href="#DejaVuSans-48"/>
       <use x="127.246094" xlink:href="#DejaVuSans-49"/>
      </g>
     </g>
    </g>
    <g id="xtick_14">
     <g id="line2d_14">
      <g>
       <use style="stroke:#000000;stroke-width:0.8;" x="1034.568882" xlink:href="#maa610872eb" y="320.4"/>
      </g>
     </g>
     <g id="text_14">
      <!-- 326 -->
      <g transform="translate(1025.025132 331.498437)scale(0.1 -0.1)">
       <use xlink:href="#DejaVuSans-51"/>
       <use x="63.623047" xlink:href="#DejaVuSans-50"/>
       <use x="127.246094" xlink:href="#DejaVuSans-54"/>
      </g>
     </g>
    </g>
    <g id="xtick_15">
     <g id="line2d_15">
      <g>
       <use style="stroke:#000000;stroke-width:0.8;" x="1104.893197" xlink:href="#maa610872eb" y="320.4"/>
      </g>
     </g>
     <g id="text_15">
      <!-- 351 -->
      <g transform="translate(1095.349447 331.498437)scale(0.1 -0.1)">
       <use xlink:href="#DejaVuSans-51"/>
       <use x="63.623047" xlink:href="#DejaVuSans-53"/>
       <use x="127.246094" xlink:href="#DejaVuSans-49"/>
      </g>
     </g>
    </g>
    <g id="xtick_16">
     <g id="line2d_16">
      <g>
       <use style="stroke:#000000;stroke-width:0.8;" x="1175.217513" xlink:href="#maa610872eb" y="320.4"/>
      </g>
     </g>
     <g id="text_16">
      <!-- 376 -->
      <g transform="translate(1165.673763 331.498437)scale(0.1 -0.1)">
       <use xlink:href="#DejaVuSans-51"/>
       <use x="63.623047" xlink:href="#DejaVuSans-55"/>
       <use x="127.246094" xlink:href="#DejaVuSans-54"/>
      </g>
     </g>
    </g>
    <g id="xtick_17">
     <g id="line2d_17">
      <g>
       <use style="stroke:#000000;stroke-width:0.8;" x="1245.541828" xlink:href="#maa610872eb" y="320.4"/>
      </g>
     </g>
     <g id="text_17">
      <!-- 401 -->
      <defs>
       <path d="M 37.796875 64.3125 
L 12.890625 25.390625 
L 37.796875 25.390625 
z
M 35.203125 72.90625 
L 47.609375 72.90625 
L 47.609375 25.390625 
L 58.015625 25.390625 
L 58.015625 17.1875 
L 47.609375 17.1875 
L 47.609375 0 
L 37.796875 0 
L 37.796875 17.1875 
L 4.890625 17.1875 
L 4.890625 26.703125 
z
" id="DejaVuSans-52"/>
      </defs>
      <g transform="translate(1235.998078 331.498437)scale(0.1 -0.1)">
       <use xlink:href="#DejaVuSans-52"/>
       <use x="63.623047" xlink:href="#DejaVuSans-48"/>
       <use x="127.246094" xlink:href="#DejaVuSans-49"/>
      </g>
     </g>
    </g>
    <g id="xtick_18">
     <g id="line2d_18">
      <g>
       <use style="stroke:#000000;stroke-width:0.8;" x="1315.866143" xlink:href="#maa610872eb" y="320.4"/>
      </g>
     </g>
     <g id="text_18">
      <!-- 426 -->
      <g transform="translate(1306.322393 331.498437)scale(0.1 -0.1)">
       <use xlink:href="#DejaVuSans-52"/>
       <use x="63.623047" xlink:href="#DejaVuSans-50"/>
       <use x="127.246094" xlink:href="#DejaVuSans-54"/>
      </g>
     </g>
    </g>
    <g id="xtick_19">
     <g id="line2d_19">
      <g>
       <use style="stroke:#000000;stroke-width:0.8;" x="1386.190458" xlink:href="#maa610872eb" y="320.4"/>
      </g>
     </g>
     <g id="text_19">
      <!-- 451 -->
      <g transform="translate(1376.646708 331.498437)scale(0.1 -0.1)">
       <use xlink:href="#DejaVuSans-52"/>
       <use x="63.623047" xlink:href="#DejaVuSans-53"/>
       <use x="127.246094" xlink:href="#DejaVuSans-49"/>
      </g>
     </g>
    </g>
    <g id="xtick_20">
     <g id="line2d_20">
      <g>
       <use style="stroke:#000000;stroke-width:0.8;" x="1456.514774" xlink:href="#maa610872eb" y="320.4"/>
      </g>
     </g>
     <g id="text_20">
      <!-- 476 -->
      <g transform="translate(1446.971024 331.498437)scale(0.1 -0.1)">
       <use xlink:href="#DejaVuSans-52"/>
       <use x="63.623047" xlink:href="#DejaVuSans-55"/>
       <use x="127.246094" xlink:href="#DejaVuSans-54"/>
      </g>
     </g>
    </g>
    <g id="xtick_21">
     <g id="line2d_21">
      <g>
       <use style="stroke:#000000;stroke-width:0.8;" x="1526.839089" xlink:href="#maa610872eb" y="320.4"/>
      </g>
     </g>
     <g id="text_21">
      <!-- 501 -->
      <g transform="translate(1517.295339 331.498437)scale(0.1 -0.1)">
       <use xlink:href="#DejaVuSans-53"/>
       <use x="63.623047" xlink:href="#DejaVuSans-48"/>
       <use x="127.246094" xlink:href="#DejaVuSans-49"/>
      </g>
     </g>
    </g>
    <g id="text_22">
     <!-- Trials -->
     <defs>
      <path d="M 0.484375 72.90625 
L 67.671875 72.90625 
L 67.671875 58.6875 
L 43.5 58.6875 
L 43.5 0 
L 24.703125 0 
L 24.703125 58.6875 
L 0.484375 58.6875 
z
" id="DejaVuSans-Bold-84"/>
      <path d="M 49.03125 39.796875 
Q 46.734375 40.875 44.453125 41.375 
Q 42.1875 41.890625 39.890625 41.890625 
Q 33.15625 41.890625 29.515625 37.5625 
Q 25.875 33.25 25.875 25.203125 
L 25.875 0 
L 8.40625 0 
L 8.40625 54.6875 
L 25.875 54.6875 
L 25.875 45.703125 
Q 29.25 51.078125 33.609375 53.53125 
Q 37.984375 56 44.09375 56 
Q 44.96875 56 45.984375 55.921875 
Q 47.015625 55.859375 48.96875 55.609375 
z
" id="DejaVuSans-Bold-114"/>
      <path d="M 8.40625 54.6875 
L 25.875 54.6875 
L 25.875 0 
L 8.40625 0 
z
M 8.40625 75.984375 
L 25.875 75.984375 
L 25.875 61.71875 
L 8.40625 61.71875 
z
" id="DejaVuSans-Bold-105"/>
      <path d="M 32.90625 24.609375 
Q 27.4375 24.609375 24.671875 22.75 
Q 21.921875 20.90625 21.921875 17.28125 
Q 21.921875 13.96875 24.140625 12.078125 
Q 26.375 10.203125 30.328125 10.203125 
Q 35.25 10.203125 38.625 13.734375 
Q 42 17.28125 42 22.609375 
L 42 24.609375 
z
M 59.625 31.203125 
L 59.625 0 
L 42 0 
L 42 8.109375 
Q 38.484375 3.125 34.078125 0.84375 
Q 29.6875 -1.421875 23.390625 -1.421875 
Q 14.890625 -1.421875 9.59375 3.53125 
Q 4.296875 8.5 4.296875 16.40625 
Q 4.296875 26.03125 10.90625 30.515625 
Q 17.53125 35.015625 31.6875 35.015625 
L 42 35.015625 
L 42 36.375 
Q 42 40.53125 38.71875 42.453125 
Q 35.453125 44.390625 28.515625 44.390625 
Q 22.90625 44.390625 18.0625 43.265625 
Q 13.234375 42.140625 9.078125 39.890625 
L 9.078125 53.21875 
Q 14.703125 54.59375 20.359375 55.296875 
Q 26.03125 56 31.6875 56 
Q 46.484375 56 53.046875 50.171875 
Q 59.625 44.34375 59.625 31.203125 
z
" id="DejaVuSans-Bold-97"/>
      <path d="M 8.40625 75.984375 
L 25.875 75.984375 
L 25.875 0 
L 8.40625 0 
z
" id="DejaVuSans-Bold-108"/>
      <path d="M 51.125 52.984375 
L 51.125 39.703125 
Q 45.515625 42.046875 40.28125 43.21875 
Q 35.0625 44.390625 30.421875 44.390625 
Q 25.4375 44.390625 23.015625 43.140625 
Q 20.609375 41.890625 20.609375 39.3125 
Q 20.609375 37.203125 22.4375 36.078125 
Q 24.265625 34.96875 29 34.421875 
L 32.078125 33.984375 
Q 45.515625 32.28125 50.140625 28.375 
Q 54.78125 24.46875 54.78125 16.109375 
Q 54.78125 7.375 48.328125 2.96875 
Q 41.890625 -1.421875 29.109375 -1.421875 
Q 23.6875 -1.421875 17.890625 -0.5625 
Q 12.109375 0.296875 6 2 
L 6 15.28125 
Q 11.234375 12.75 16.71875 11.46875 
Q 22.21875 10.203125 27.875 10.203125 
Q 33.015625 10.203125 35.59375 11.609375 
Q 38.1875 13.03125 38.1875 15.828125 
Q 38.1875 18.171875 36.40625 19.3125 
Q 34.625 20.453125 29.296875 21.09375 
L 26.21875 21.484375 
Q 14.546875 22.953125 9.859375 26.90625 
Q 5.171875 30.859375 5.171875 38.921875 
Q 5.171875 47.609375 11.125 51.796875 
Q 17.09375 56 29.390625 56 
Q 34.234375 56 39.546875 55.265625 
Q 44.875 54.546875 51.125 52.984375 
z
" id="DejaVuSans-Bold-115"/>
     </defs>
     <g transform="translate(859.357344 348.215937)scale(0.14 -0.14)">
      <use xlink:href="#DejaVuSans-Bold-84"/>
      <use x="68.041016" xlink:href="#DejaVuSans-Bold-114"/>
      <use x="117.357422" xlink:href="#DejaVuSans-Bold-105"/>
      <use x="151.634766" xlink:href="#DejaVuSans-Bold-97"/>
      <use x="219.115234" xlink:href="#DejaVuSans-Bold-108"/>
      <use x="253.392578" xlink:href="#DejaVuSans-Bold-115"/>
     </g>
    </g>
   </g>
   <g id="matplotlib.axis_2">
    <g id="ytick_1">
     <g id="line2d_22">
      <defs>
       <path d="M 0 0 
L 3.5 0 
" id="m607357d8b3" style="stroke:#000000;stroke-width:0.8;"/>
      </defs>
      <g>
       <use style="stroke:#000000;stroke-width:0.8;" x="44.261875" xlink:href="#m607357d8b3" y="297.3"/>
      </g>
     </g>
     <g id="text_23">
      <!-- 0.0 -->
      <defs>
       <path d="M 10.6875 12.40625 
L 21 12.40625 
L 21 0 
L 10.6875 0 
z
" id="DejaVuSans-46"/>
      </defs>
      <g transform="translate(24.85875 301.099219)scale(0.1 -0.1)">
       <use xlink:href="#DejaVuSans-48"/>
       <use x="63.623047" xlink:href="#DejaVuSans-46"/>
       <use x="95.410156" xlink:href="#DejaVuSans-48"/>
      </g>
     </g>
    </g>
    <g id="ytick_2">
     <g id="line2d_23">
      <g>
       <use style="stroke:#000000;stroke-width:0.8;" x="44.261875" xlink:href="#m607357d8b3" y="251.1"/>
      </g>
     </g>
     <g id="text_24">
      <!-- 0.2 -->
      <g transform="translate(24.85875 254.899219)scale(0.1 -0.1)">
       <use xlink:href="#DejaVuSans-48"/>
       <use x="63.623047" xlink:href="#DejaVuSans-46"/>
       <use x="95.410156" xlink:href="#DejaVuSans-50"/>
      </g>
     </g>
    </g>
    <g id="ytick_3">
     <g id="line2d_24">
      <g>
       <use style="stroke:#000000;stroke-width:0.8;" x="44.261875" xlink:href="#m607357d8b3" y="204.9"/>
      </g>
     </g>
     <g id="text_25">
      <!-- 0.4 -->
      <g transform="translate(24.85875 208.699219)scale(0.1 -0.1)">
       <use xlink:href="#DejaVuSans-48"/>
       <use x="63.623047" xlink:href="#DejaVuSans-46"/>
       <use x="95.410156" xlink:href="#DejaVuSans-52"/>
      </g>
     </g>
    </g>
    <g id="ytick_4">
     <g id="line2d_25">
      <g>
       <use style="stroke:#000000;stroke-width:0.8;" x="44.261875" xlink:href="#m607357d8b3" y="158.7"/>
      </g>
     </g>
     <g id="text_26">
      <!-- 0.6 -->
      <g transform="translate(24.85875 162.499219)scale(0.1 -0.1)">
       <use xlink:href="#DejaVuSans-48"/>
       <use x="63.623047" xlink:href="#DejaVuSans-46"/>
       <use x="95.410156" xlink:href="#DejaVuSans-54"/>
      </g>
     </g>
    </g>
    <g id="ytick_5">
     <g id="line2d_26">
      <g>
       <use style="stroke:#000000;stroke-width:0.8;" x="44.261875" xlink:href="#m607357d8b3" y="112.5"/>
      </g>
     </g>
     <g id="text_27">
      <!-- 0.8 -->
      <defs>
       <path d="M 31.78125 34.625 
Q 24.75 34.625 20.71875 30.859375 
Q 16.703125 27.09375 16.703125 20.515625 
Q 16.703125 13.921875 20.71875 10.15625 
Q 24.75 6.390625 31.78125 6.390625 
Q 38.8125 6.390625 42.859375 10.171875 
Q 46.921875 13.96875 46.921875 20.515625 
Q 46.921875 27.09375 42.890625 30.859375 
Q 38.875 34.625 31.78125 34.625 
z
M 21.921875 38.8125 
Q 15.578125 40.375 12.03125 44.71875 
Q 8.5 49.078125 8.5 55.328125 
Q 8.5 64.0625 14.71875 69.140625 
Q 20.953125 74.21875 31.78125 74.21875 
Q 42.671875 74.21875 48.875 69.140625 
Q 55.078125 64.0625 55.078125 55.328125 
Q 55.078125 49.078125 51.53125 44.71875 
Q 48 40.375 41.703125 38.8125 
Q 48.828125 37.15625 52.796875 32.3125 
Q 56.78125 27.484375 56.78125 20.515625 
Q 56.78125 9.90625 50.3125 4.234375 
Q 43.84375 -1.421875 31.78125 -1.421875 
Q 19.734375 -1.421875 13.25 4.234375 
Q 6.78125 9.90625 6.78125 20.515625 
Q 6.78125 27.484375 10.78125 32.3125 
Q 14.796875 37.15625 21.921875 38.8125 
z
M 18.3125 54.390625 
Q 18.3125 48.734375 21.84375 45.5625 
Q 25.390625 42.390625 31.78125 42.390625 
Q 38.140625 42.390625 41.71875 45.5625 
Q 45.3125 48.734375 45.3125 54.390625 
Q 45.3125 60.0625 41.71875 63.234375 
Q 38.140625 66.40625 31.78125 66.40625 
Q 25.390625 66.40625 21.84375 63.234375 
Q 18.3125 60.0625 18.3125 54.390625 
z
" id="DejaVuSans-56"/>
      </defs>
      <g transform="translate(24.85875 116.299219)scale(0.1 -0.1)">
       <use xlink:href="#DejaVuSans-48"/>
       <use x="63.623047" xlink:href="#DejaVuSans-46"/>
       <use x="95.410156" xlink:href="#DejaVuSans-56"/>
      </g>
     </g>
    </g>
    <g id="ytick_6">
     <g id="line2d_27">
      <g>
       <use style="stroke:#000000;stroke-width:0.8;" x="44.261875" xlink:href="#m607357d8b3" y="66.3"/>
      </g>
     </g>
     <g id="text_28">
      <!-- 1.0 -->
      <g transform="translate(24.85875 70.099219)scale(0.1 -0.1)">
       <use xlink:href="#DejaVuSans-49"/>
       <use x="63.623047" xlink:href="#DejaVuSans-46"/>
       <use x="95.410156" xlink:href="#DejaVuSans-48"/>
      </g>
     </g>
    </g>
    <g id="text_29">
     <!-- Performance Accuracy -->
     <defs>
      <path d="M 9.1875 72.90625 
L 40.375 72.90625 
Q 54.296875 72.90625 61.734375 66.71875 
Q 69.1875 60.546875 69.1875 49.125 
Q 69.1875 37.640625 61.734375 31.46875 
Q 54.296875 25.296875 40.375 25.296875 
L 27.984375 25.296875 
L 27.984375 0 
L 9.1875 0 
z
M 27.984375 59.28125 
L 27.984375 38.921875 
L 38.375 38.921875 
Q 43.84375 38.921875 46.828125 41.578125 
Q 49.8125 44.234375 49.8125 49.125 
Q 49.8125 54 46.828125 56.640625 
Q 43.84375 59.28125 38.375 59.28125 
z
" id="DejaVuSans-Bold-80"/>
      <path d="M 62.984375 27.484375 
L 62.984375 22.515625 
L 22.125 22.515625 
Q 22.75 16.359375 26.5625 13.28125 
Q 30.375 10.203125 37.203125 10.203125 
Q 42.71875 10.203125 48.5 11.84375 
Q 54.296875 13.484375 60.40625 16.796875 
L 60.40625 3.328125 
Q 54.203125 0.984375 48 -0.21875 
Q 41.796875 -1.421875 35.59375 -1.421875 
Q 20.75 -1.421875 12.515625 6.125 
Q 4.296875 13.671875 4.296875 27.296875 
Q 4.296875 40.671875 12.375 48.328125 
Q 20.453125 56 34.625 56 
Q 47.515625 56 55.25 48.234375 
Q 62.984375 40.484375 62.984375 27.484375 
z
M 45.015625 33.296875 
Q 45.015625 38.28125 42.109375 41.328125 
Q 39.203125 44.390625 34.515625 44.390625 
Q 29.4375 44.390625 26.265625 41.53125 
Q 23.09375 38.671875 22.3125 33.296875 
z
" id="DejaVuSans-Bold-101"/>
      <path d="M 44.390625 75.984375 
L 44.390625 64.5 
L 34.71875 64.5 
Q 31 64.5 29.53125 63.15625 
Q 28.078125 61.8125 28.078125 58.5 
L 28.078125 54.6875 
L 43.015625 54.6875 
L 43.015625 42.1875 
L 28.078125 42.1875 
L 28.078125 0 
L 10.59375 0 
L 10.59375 42.1875 
L 1.90625 42.1875 
L 1.90625 54.6875 
L 10.59375 54.6875 
L 10.59375 58.5 
Q 10.59375 67.4375 15.578125 71.703125 
Q 20.5625 75.984375 31 75.984375 
z
" id="DejaVuSans-Bold-102"/>
      <path d="M 34.421875 43.5 
Q 28.609375 43.5 25.5625 39.328125 
Q 22.515625 35.15625 22.515625 27.296875 
Q 22.515625 19.4375 25.5625 15.25 
Q 28.609375 11.078125 34.421875 11.078125 
Q 40.140625 11.078125 43.15625 15.25 
Q 46.1875 19.4375 46.1875 27.296875 
Q 46.1875 35.15625 43.15625 39.328125 
Q 40.140625 43.5 34.421875 43.5 
z
M 34.421875 56 
Q 48.53125 56 56.46875 48.375 
Q 64.40625 40.765625 64.40625 27.296875 
Q 64.40625 13.8125 56.46875 6.1875 
Q 48.53125 -1.421875 34.421875 -1.421875 
Q 20.265625 -1.421875 12.28125 6.1875 
Q 4.296875 13.8125 4.296875 27.296875 
Q 4.296875 40.765625 12.28125 48.375 
Q 20.265625 56 34.421875 56 
z
" id="DejaVuSans-Bold-111"/>
      <path d="M 59.078125 45.609375 
Q 62.40625 50.6875 66.96875 53.34375 
Q 71.53125 56 77 56 
Q 86.421875 56 91.359375 50.1875 
Q 96.296875 44.390625 96.296875 33.296875 
L 96.296875 0 
L 78.71875 0 
L 78.71875 28.515625 
Q 78.765625 29.15625 78.78125 29.828125 
Q 78.8125 30.515625 78.8125 31.78125 
Q 78.8125 37.59375 77.09375 40.203125 
Q 75.390625 42.828125 71.578125 42.828125 
Q 66.609375 42.828125 63.890625 38.71875 
Q 61.1875 34.625 61.078125 26.859375 
L 61.078125 0 
L 43.5 0 
L 43.5 28.515625 
Q 43.5 37.59375 41.9375 40.203125 
Q 40.375 42.828125 36.375 42.828125 
Q 31.34375 42.828125 28.609375 38.703125 
Q 25.875 34.578125 25.875 26.90625 
L 25.875 0 
L 8.296875 0 
L 8.296875 54.6875 
L 25.875 54.6875 
L 25.875 46.6875 
Q 29.109375 51.3125 33.28125 53.65625 
Q 37.453125 56 42.484375 56 
Q 48.140625 56 52.484375 53.265625 
Q 56.84375 50.53125 59.078125 45.609375 
z
" id="DejaVuSans-Bold-109"/>
      <path d="M 63.375 33.296875 
L 63.375 0 
L 45.796875 0 
L 45.796875 5.421875 
L 45.796875 25.484375 
Q 45.796875 32.5625 45.484375 35.25 
Q 45.171875 37.9375 44.390625 39.203125 
Q 43.359375 40.921875 41.59375 41.875 
Q 39.84375 42.828125 37.59375 42.828125 
Q 32.125 42.828125 29 38.59375 
Q 25.875 34.375 25.875 26.90625 
L 25.875 0 
L 8.40625 0 
L 8.40625 54.6875 
L 25.875 54.6875 
L 25.875 46.6875 
Q 29.828125 51.46875 34.265625 53.734375 
Q 38.71875 56 44.09375 56 
Q 53.5625 56 58.46875 50.1875 
Q 63.375 44.390625 63.375 33.296875 
z
" id="DejaVuSans-Bold-110"/>
      <path d="M 52.59375 52.984375 
L 52.59375 38.71875 
Q 49.03125 41.15625 45.4375 42.328125 
Q 41.84375 43.5 37.984375 43.5 
Q 30.671875 43.5 26.59375 39.234375 
Q 22.515625 34.96875 22.515625 27.296875 
Q 22.515625 19.625 26.59375 15.34375 
Q 30.671875 11.078125 37.984375 11.078125 
Q 42.09375 11.078125 45.78125 12.296875 
Q 49.46875 13.53125 52.59375 15.921875 
L 52.59375 1.609375 
Q 48.484375 0.09375 44.265625 -0.65625 
Q 40.046875 -1.421875 35.796875 -1.421875 
Q 21 -1.421875 12.640625 6.171875 
Q 4.296875 13.765625 4.296875 27.296875 
Q 4.296875 40.828125 12.640625 48.40625 
Q 21 56 35.796875 56 
Q 40.09375 56 44.265625 55.25 
Q 48.4375 54.5 52.59375 52.984375 
z
" id="DejaVuSans-Bold-99"/>
      <path id="DejaVuSans-Bold-32"/>
      <path d="M 53.421875 13.28125 
L 24.03125 13.28125 
L 19.390625 0 
L 0.484375 0 
L 27.484375 72.90625 
L 49.90625 72.90625 
L 76.90625 0 
L 58.015625 0 
z
M 28.71875 26.8125 
L 48.6875 26.8125 
L 38.71875 55.8125 
z
" id="DejaVuSans-Bold-65"/>
      <path d="M 7.8125 21.296875 
L 7.8125 54.6875 
L 25.390625 54.6875 
L 25.390625 49.21875 
Q 25.390625 44.78125 25.34375 38.0625 
Q 25.296875 31.34375 25.296875 29.109375 
Q 25.296875 22.515625 25.640625 19.609375 
Q 25.984375 16.703125 26.8125 15.375 
Q 27.875 13.671875 29.609375 12.734375 
Q 31.34375 11.8125 33.59375 11.8125 
Q 39.0625 11.8125 42.1875 16.015625 
Q 45.3125 20.21875 45.3125 27.6875 
L 45.3125 54.6875 
L 62.796875 54.6875 
L 62.796875 0 
L 45.3125 0 
L 45.3125 7.90625 
Q 41.359375 3.125 36.9375 0.84375 
Q 32.515625 -1.421875 27.203125 -1.421875 
Q 17.71875 -1.421875 12.765625 4.390625 
Q 7.8125 10.203125 7.8125 21.296875 
z
" id="DejaVuSans-Bold-117"/>
      <path d="M 1.21875 54.6875 
L 18.703125 54.6875 
L 33.40625 17.578125 
L 45.90625 54.6875 
L 63.375 54.6875 
L 40.375 -5.171875 
Q 36.921875 -14.3125 32.296875 -17.9375 
Q 27.6875 -21.578125 20.125 -21.578125 
L 10.015625 -21.578125 
L 10.015625 -10.109375 
L 15.484375 -10.109375 
Q 19.921875 -10.109375 21.9375 -8.6875 
Q 23.96875 -7.28125 25.09375 -3.609375 
L 25.59375 -2.09375 
z
" id="DejaVuSans-Bold-121"/>
     </defs>
     <g transform="translate(17.837812 270.360937)rotate(-90)scale(0.14 -0.14)">
      <use xlink:href="#DejaVuSans-Bold-80"/>
      <use x="73.291016" xlink:href="#DejaVuSans-Bold-101"/>
      <use x="141.113281" xlink:href="#DejaVuSans-Bold-114"/>
      <use x="190.429688" xlink:href="#DejaVuSans-Bold-102"/>
      <use x="233.935547" xlink:href="#DejaVuSans-Bold-111"/>
      <use x="302.636719" xlink:href="#DejaVuSans-Bold-114"/>
      <use x="351.953125" xlink:href="#DejaVuSans-Bold-109"/>
      <use x="456.152344" xlink:href="#DejaVuSans-Bold-97"/>
      <use x="523.632812" xlink:href="#DejaVuSans-Bold-110"/>
      <use x="594.824219" xlink:href="#DejaVuSans-Bold-99"/>
      <use x="654.101562" xlink:href="#DejaVuSans-Bold-101"/>
      <use x="721.923828" xlink:href="#DejaVuSans-Bold-32"/>
      <use x="756.738281" xlink:href="#DejaVuSans-Bold-65"/>
      <use x="834.130859" xlink:href="#DejaVuSans-Bold-99"/>
      <use x="893.408203" xlink:href="#DejaVuSans-Bold-99"/>
      <use x="952.685547" xlink:href="#DejaVuSans-Bold-117"/>
      <use x="1023.876953" xlink:href="#DejaVuSans-Bold-114"/>
      <use x="1073.193359" xlink:href="#DejaVuSans-Bold-97"/>
      <use x="1140.673828" xlink:href="#DejaVuSans-Bold-99"/>
      <use x="1199.951172" xlink:href="#DejaVuSans-Bold-121"/>
     </g>
    </g>
   </g>
   <g id="LineCollection_1">
    <path clip-path="url(#p742b52f232)" d="M 120.352784 181.8 
L 1642.170966 181.8 
" style="fill:none;stroke:#000000;stroke-dasharray:3.7,1.6;stroke-dashoffset:0;"/>
   </g>
   <g id="LineCollection_2">
    <path clip-path="url(#p742b52f232)" d="M 120.352784 67.224 
L 1524.026116 67.224 
" style="fill:none;stroke:#008000;stroke-dasharray:14.08,3.52,2.2,3.52;stroke-dashoffset:0;stroke-width:2.2;"/>
   </g>
   <g id="LineCollection_3">
    <path clip-path="url(#p742b52f232)" d="M 120.352784 297.3 
L 1524.026116 297.3 
" style="fill:none;stroke:#a52a2a;stroke-dasharray:14.08,3.52,2.2,3.52;stroke-dashoffset:0;stroke-width:2.2;"/>
   </g>
   <g id="line2d_28">
    <path clip-path="url(#p742b52f232)" d="M 120.352784 66.3 
L 817.969991 66.3 
L 817.969991 66.3 
" style="fill:none;stroke:#008000;stroke-dasharray:1.48,0.64;stroke-dashoffset:0;stroke-width:0.4;"/>
   </g>
   <g id="line2d_29">
    <path clip-path="url(#p742b52f232)" d="M 120.352784 181.8 
L 128.791702 66.3 
L 812.344046 66.3 
L 817.969991 143.3 
L 817.969991 143.3 
" style="fill:none;stroke:#008000;stroke-linecap:square;stroke-width:2;"/>
   </g>
   <g id="line2d_30">
    <path clip-path="url(#p742b52f232)" d="M 823.595937 297.3 
L 1521.213144 297.3 
L 1521.213144 297.3 
" style="fill:none;stroke:#a52a2a;stroke-dasharray:1.48,0.64;stroke-dashoffset:0;stroke-width:0.4;"/>
   </g>
   <g id="line2d_31">
    <path clip-path="url(#p742b52f232)" d="M 823.595937 297.3 
L 1521.213144 297.3 
L 1521.213144 297.3 
" style="fill:none;stroke:#a52a2a;stroke-linecap:square;stroke-width:2;"/>
   </g>
   <g id="patch_3">
    <path d="M 44.261875 320.4 
L 44.261875 43.2 
" style="fill:none;stroke:#000000;stroke-linecap:square;stroke-linejoin:miter;stroke-width:0.8;"/>
   </g>
   <g id="patch_4">
    <path d="M 1718.261875 320.4 
L 1718.261875 43.2 
" style="fill:none;stroke:#000000;stroke-linecap:square;stroke-linejoin:miter;stroke-width:0.8;"/>
   </g>
   <g id="patch_5">
    <path d="M 44.261875 320.4 
L 1718.261875 320.4 
" style="fill:none;stroke:#000000;stroke-linecap:square;stroke-linejoin:miter;stroke-width:0.8;"/>
   </g>
   <g id="patch_6">
    <path d="M 44.261875 43.2 
L 1718.261875 43.2 
" style="fill:none;stroke:#000000;stroke-linecap:square;stroke-linejoin:miter;stroke-width:0.8;"/>
   </g>
   <g id="legend_1">
    <g id="patch_7">
     <path d="M 218.529375 382.928 
L 1547.994375 382.928 
Q 1550.394375 382.928 1550.394375 380.528 
L 1550.394375 364.0205 
Q 1550.394375 361.6205 1547.994375 361.6205 
L 218.529375 361.6205 
Q 216.129375 361.6205 216.129375 364.0205 
L 216.129375 380.528 
Q 216.129375 382.928 218.529375 382.928 
z
" style="fill:#4c4c4c;opacity:0.5;stroke:#4c4c4c;stroke-linejoin:miter;"/>
    </g>
    <g id="patch_8">
     <path d="M 216.529375 380.928 
L 1545.994375 380.928 
Q 1548.394375 380.928 1548.394375 378.528 
L 1548.394375 362.0205 
Q 1548.394375 359.6205 1545.994375 359.6205 
L 216.529375 359.6205 
Q 214.129375 359.6205 214.129375 362.0205 
L 214.129375 378.528 
Q 214.129375 380.928 216.529375 380.928 
z
" style="fill:#ffffff;stroke:#cccccc;stroke-linejoin:miter;"/>
    </g>
    <g id="line2d_32">
     <path d="M 218.929375 369.338625 
L 242.929375 369.338625 
" style="fill:none;stroke:#008000;stroke-dasharray:1.48,0.64;stroke-dashoffset:0;stroke-width:0.4;"/>
    </g>
    <g id="line2d_33"/>
    <g id="text_30">
     <!-- Ego North -->
     <defs>
      <path d="M 9.1875 72.90625 
L 59.90625 72.90625 
L 59.90625 58.6875 
L 27.984375 58.6875 
L 27.984375 45.125 
L 58.015625 45.125 
L 58.015625 30.90625 
L 27.984375 30.90625 
L 27.984375 14.203125 
L 60.984375 14.203125 
L 60.984375 0 
L 9.1875 0 
z
" id="DejaVuSans-Bold-69"/>
      <path d="M 45.609375 9.28125 
Q 42 4.5 37.640625 2.25 
Q 33.296875 0 27.59375 0 
Q 17.578125 0 11.03125 7.875 
Q 4.5 15.765625 4.5 27.984375 
Q 4.5 40.234375 11.03125 48.0625 
Q 17.578125 55.90625 27.59375 55.90625 
Q 33.296875 55.90625 37.640625 53.65625 
Q 42 51.421875 45.609375 46.578125 
L 45.609375 54.6875 
L 63.1875 54.6875 
L 63.1875 5.515625 
Q 63.1875 -7.671875 54.859375 -14.625 
Q 46.53125 -21.578125 30.71875 -21.578125 
Q 25.59375 -21.578125 20.796875 -20.796875 
Q 16.015625 -20.015625 11.1875 -18.40625 
L 11.1875 -4.78125 
Q 15.765625 -7.421875 20.15625 -8.71875 
Q 24.5625 -10.015625 29 -10.015625 
Q 37.59375 -10.015625 41.59375 -6.25 
Q 45.609375 -2.484375 45.609375 5.515625 
z
M 34.078125 43.3125 
Q 28.65625 43.3125 25.625 39.296875 
Q 22.609375 35.296875 22.609375 27.984375 
Q 22.609375 20.453125 25.53125 16.578125 
Q 28.46875 12.703125 34.078125 12.703125 
Q 39.546875 12.703125 42.578125 16.703125 
Q 45.609375 20.703125 45.609375 27.984375 
Q 45.609375 35.296875 42.578125 39.296875 
Q 39.546875 43.3125 34.078125 43.3125 
z
" id="DejaVuSans-Bold-103"/>
      <path d="M 9.1875 72.90625 
L 30.171875 72.90625 
L 56.6875 22.90625 
L 56.6875 72.90625 
L 74.515625 72.90625 
L 74.515625 0 
L 53.515625 0 
L 27 50 
L 27 0 
L 9.1875 0 
z
" id="DejaVuSans-Bold-78"/>
      <path d="M 27.484375 70.21875 
L 27.484375 54.6875 
L 45.515625 54.6875 
L 45.515625 42.1875 
L 27.484375 42.1875 
L 27.484375 19 
Q 27.484375 15.1875 29 13.84375 
Q 30.515625 12.5 35.015625 12.5 
L 44 12.5 
L 44 0 
L 29 0 
Q 18.65625 0 14.328125 4.3125 
Q 10.015625 8.640625 10.015625 19 
L 10.015625 42.1875 
L 1.3125 42.1875 
L 1.3125 54.6875 
L 10.015625 54.6875 
L 10.015625 70.21875 
z
" id="DejaVuSans-Bold-116"/>
      <path d="M 63.375 33.296875 
L 63.375 0 
L 45.796875 0 
L 45.796875 5.421875 
L 45.796875 25.390625 
Q 45.796875 32.5625 45.484375 35.25 
Q 45.171875 37.9375 44.390625 39.203125 
Q 43.359375 40.921875 41.59375 41.875 
Q 39.84375 42.828125 37.59375 42.828125 
Q 32.125 42.828125 29 38.59375 
Q 25.875 34.375 25.875 26.90625 
L 25.875 0 
L 8.40625 0 
L 8.40625 75.984375 
L 25.875 75.984375 
L 25.875 46.6875 
Q 29.828125 51.46875 34.265625 53.734375 
Q 38.71875 56 44.09375 56 
Q 53.5625 56 58.46875 50.1875 
Q 63.375 44.390625 63.375 33.296875 
z
" id="DejaVuSans-Bold-104"/>
     </defs>
     <g transform="translate(252.529375 373.538625)scale(0.12 -0.12)">
      <use xlink:href="#DejaVuSans-Bold-69"/>
      <use x="68.310547" xlink:href="#DejaVuSans-Bold-103"/>
      <use x="139.892578" xlink:href="#DejaVuSans-Bold-111"/>
      <use x="208.59375" xlink:href="#DejaVuSans-Bold-32"/>
      <use x="243.408203" xlink:href="#DejaVuSans-Bold-78"/>
      <use x="327.099609" xlink:href="#DejaVuSans-Bold-111"/>
      <use x="395.800781" xlink:href="#DejaVuSans-Bold-114"/>
      <use x="445.117188" xlink:href="#DejaVuSans-Bold-116"/>
      <use x="492.919922" xlink:href="#DejaVuSans-Bold-104"/>
     </g>
    </g>
    <g id="line2d_34">
     <path d="M 344.220625 369.338625 
L 368.220625 369.338625 
" style="fill:none;stroke:#008000;stroke-linecap:square;stroke-width:2;"/>
    </g>
    <g id="line2d_35"/>
    <g id="text_31">
     <!-- Moving Avg. (Ego north) -->
     <defs>
      <path d="M 9.1875 72.90625 
L 33.109375 72.90625 
L 49.703125 33.890625 
L 66.40625 72.90625 
L 90.28125 72.90625 
L 90.28125 0 
L 72.515625 0 
L 72.515625 53.328125 
L 55.71875 14.015625 
L 43.796875 14.015625 
L 27 53.328125 
L 27 0 
L 9.1875 0 
z
" id="DejaVuSans-Bold-77"/>
      <path d="M 1.515625 54.6875 
L 19 54.6875 
L 32.625 16.890625 
L 46.1875 54.6875 
L 63.71875 54.6875 
L 42.1875 0 
L 23 0 
z
" id="DejaVuSans-Bold-118"/>
      <path d="M 10.203125 18.890625 
L 27.78125 18.890625 
L 27.78125 0 
L 10.203125 0 
z
" id="DejaVuSans-Bold-46"/>
      <path d="M 37.703125 -13.1875 
L 23.1875 -13.1875 
Q 15.71875 -1.125 12.15625 9.734375 
Q 8.59375 20.609375 8.59375 31.296875 
Q 8.59375 42 12.171875 52.953125 
Q 15.765625 63.921875 23.1875 75.875 
L 37.703125 75.875 
Q 31.453125 64.3125 28.328125 53.25 
Q 25.203125 42.1875 25.203125 31.390625 
Q 25.203125 20.609375 28.296875 9.515625 
Q 31.390625 -1.5625 37.703125 -13.1875 
z
" id="DejaVuSans-Bold-40"/>
      <path d="M 8.015625 -13.1875 
Q 14.265625 -1.5625 17.390625 9.515625 
Q 20.515625 20.609375 20.515625 31.390625 
Q 20.515625 42.1875 17.390625 53.25 
Q 14.265625 64.3125 8.015625 75.875 
L 22.515625 75.875 
Q 29.9375 63.921875 33.515625 52.953125 
Q 37.109375 42 37.109375 31.296875 
Q 37.109375 20.609375 33.546875 9.734375 
Q 29.984375 -1.125 22.515625 -13.1875 
z
" id="DejaVuSans-Bold-41"/>
     </defs>
     <g transform="translate(377.820625 373.538625)scale(0.12 -0.12)">
      <use xlink:href="#DejaVuSans-Bold-77"/>
      <use x="99.511719" xlink:href="#DejaVuSans-Bold-111"/>
      <use x="168.212891" xlink:href="#DejaVuSans-Bold-118"/>
      <use x="233.398438" xlink:href="#DejaVuSans-Bold-105"/>
      <use x="267.675781" xlink:href="#DejaVuSans-Bold-110"/>
      <use x="338.867188" xlink:href="#DejaVuSans-Bold-103"/>
      <use x="410.449219" xlink:href="#DejaVuSans-Bold-32"/>
      <use x="445.263672" xlink:href="#DejaVuSans-Bold-65"/>
      <use x="522.609375" xlink:href="#DejaVuSans-Bold-118"/>
      <use x="587.794922" xlink:href="#DejaVuSans-Bold-103"/>
      <use x="659.376953" xlink:href="#DejaVuSans-Bold-46"/>
      <use x="697.365234" xlink:href="#DejaVuSans-Bold-32"/>
      <use x="732.179688" xlink:href="#DejaVuSans-Bold-40"/>
      <use x="777.882812" xlink:href="#DejaVuSans-Bold-69"/>
      <use x="846.193359" xlink:href="#DejaVuSans-Bold-103"/>
      <use x="917.775391" xlink:href="#DejaVuSans-Bold-111"/>
      <use x="986.476562" xlink:href="#DejaVuSans-Bold-32"/>
      <use x="1021.291016" xlink:href="#DejaVuSans-Bold-110"/>
      <use x="1092.482422" xlink:href="#DejaVuSans-Bold-111"/>
      <use x="1161.183594" xlink:href="#DejaVuSans-Bold-114"/>
      <use x="1210.5" xlink:href="#DejaVuSans-Bold-116"/>
      <use x="1258.302734" xlink:href="#DejaVuSans-Bold-104"/>
      <use x="1329.494141" xlink:href="#DejaVuSans-Bold-41"/>
     </g>
    </g>
    <g id="line2d_36">
     <path d="M 566.84125 369.338625 
L 590.84125 369.338625 
" style="fill:none;stroke:#a52a2a;stroke-dasharray:1.48,0.64;stroke-dashoffset:0;stroke-width:0.4;"/>
    </g>
    <g id="line2d_37"/>
    <g id="text_32">
     <!-- Ego South -->
     <defs>
      <path d="M 59.90625 70.609375 
L 59.90625 55.171875 
Q 53.90625 57.859375 48.1875 59.21875 
Q 42.484375 60.59375 37.40625 60.59375 
Q 30.671875 60.59375 27.4375 58.734375 
Q 24.21875 56.890625 24.21875 52.984375 
Q 24.21875 50.046875 26.390625 48.40625 
Q 28.5625 46.78125 34.28125 45.609375 
L 42.28125 44 
Q 54.4375 41.546875 59.5625 36.5625 
Q 64.703125 31.59375 64.703125 22.40625 
Q 64.703125 10.359375 57.546875 4.46875 
Q 50.390625 -1.421875 35.6875 -1.421875 
Q 28.765625 -1.421875 21.78125 -0.09375 
Q 14.796875 1.21875 7.8125 3.8125 
L 7.8125 19.671875 
Q 14.796875 15.96875 21.3125 14.078125 
Q 27.828125 12.203125 33.890625 12.203125 
Q 40.046875 12.203125 43.3125 14.25 
Q 46.578125 16.3125 46.578125 20.125 
Q 46.578125 23.53125 44.359375 25.390625 
Q 42.140625 27.25 35.5 28.71875 
L 28.21875 30.328125 
Q 17.28125 32.671875 12.21875 37.796875 
Q 7.171875 42.921875 7.171875 51.609375 
Q 7.171875 62.5 14.203125 68.359375 
Q 21.234375 74.21875 34.421875 74.21875 
Q 40.4375 74.21875 46.78125 73.3125 
Q 53.125 72.40625 59.90625 70.609375 
z
" id="DejaVuSans-Bold-83"/>
     </defs>
     <g transform="translate(600.44125 373.538625)scale(0.12 -0.12)">
      <use xlink:href="#DejaVuSans-Bold-69"/>
      <use x="68.310547" xlink:href="#DejaVuSans-Bold-103"/>
      <use x="139.892578" xlink:href="#DejaVuSans-Bold-111"/>
      <use x="208.59375" xlink:href="#DejaVuSans-Bold-32"/>
      <use x="243.408203" xlink:href="#DejaVuSans-Bold-83"/>
      <use x="315.429688" xlink:href="#DejaVuSans-Bold-111"/>
      <use x="384.130859" xlink:href="#DejaVuSans-Bold-117"/>
      <use x="455.322266" xlink:href="#DejaVuSans-Bold-116"/>
      <use x="503.125" xlink:href="#DejaVuSans-Bold-104"/>
     </g>
    </g>
    <g id="line2d_38">
     <path d="M 693.356875 369.338625 
L 717.356875 369.338625 
" style="fill:none;stroke:#a52a2a;stroke-linecap:square;stroke-width:2;"/>
    </g>
    <g id="line2d_39"/>
    <g id="text_33">
     <!-- Moving Avg. (Ego South) -->
     <g transform="translate(726.956875 373.538625)scale(0.12 -0.12)">
      <use xlink:href="#DejaVuSans-Bold-77"/>
      <use x="99.511719" xlink:href="#DejaVuSans-Bold-111"/>
      <use x="168.212891" xlink:href="#DejaVuSans-Bold-118"/>
      <use x="233.398438" xlink:href="#DejaVuSans-Bold-105"/>
      <use x="267.675781" xlink:href="#DejaVuSans-Bold-110"/>
      <use x="338.867188" xlink:href="#DejaVuSans-Bold-103"/>
      <use x="410.449219" xlink:href="#DejaVuSans-Bold-32"/>
      <use x="445.263672" xlink:href="#DejaVuSans-Bold-65"/>
      <use x="522.609375" xlink:href="#DejaVuSans-Bold-118"/>
      <use x="587.794922" xlink:href="#DejaVuSans-Bold-103"/>
      <use x="659.376953" xlink:href="#DejaVuSans-Bold-46"/>
      <use x="697.365234" xlink:href="#DejaVuSans-Bold-32"/>
      <use x="732.179688" xlink:href="#DejaVuSans-Bold-40"/>
      <use x="777.882812" xlink:href="#DejaVuSans-Bold-69"/>
      <use x="846.193359" xlink:href="#DejaVuSans-Bold-103"/>
      <use x="917.775391" xlink:href="#DejaVuSans-Bold-111"/>
      <use x="986.476562" xlink:href="#DejaVuSans-Bold-32"/>
      <use x="1021.291016" xlink:href="#DejaVuSans-Bold-83"/>
      <use x="1093.3125" xlink:href="#DejaVuSans-Bold-111"/>
      <use x="1162.013672" xlink:href="#DejaVuSans-Bold-117"/>
      <use x="1233.205078" xlink:href="#DejaVuSans-Bold-116"/>
      <use x="1281.007812" xlink:href="#DejaVuSans-Bold-104"/>
      <use x="1352.199219" xlink:href="#DejaVuSans-Bold-41"/>
     </g>
    </g>
    <g id="line2d_40">
     <path d="M 918.701875 369.338625 
L 942.701875 369.338625 
" style="fill:none;stroke:#000000;stroke-dasharray:3.7,1.6;stroke-dashoffset:0;"/>
    </g>
    <g id="text_34">
     <!-- Chance Level -->
     <defs>
      <path d="M 67 4 
Q 61.8125 1.3125 56.203125 -0.046875 
Q 50.59375 -1.421875 44.484375 -1.421875 
Q 26.265625 -1.421875 15.625 8.765625 
Q 4.984375 18.953125 4.984375 36.375 
Q 4.984375 53.859375 15.625 64.03125 
Q 26.265625 74.21875 44.484375 74.21875 
Q 50.59375 74.21875 56.203125 72.84375 
Q 61.8125 71.484375 67 68.796875 
L 67 53.71875 
Q 61.765625 57.28125 56.6875 58.9375 
Q 51.609375 60.59375 46 60.59375 
Q 35.9375 60.59375 30.171875 54.140625 
Q 24.421875 47.703125 24.421875 36.375 
Q 24.421875 25.09375 30.171875 18.640625 
Q 35.9375 12.203125 46 12.203125 
Q 51.609375 12.203125 56.6875 13.859375 
Q 61.765625 15.53125 67 19.09375 
z
" id="DejaVuSans-Bold-67"/>
      <path d="M 9.1875 72.90625 
L 27.984375 72.90625 
L 27.984375 14.203125 
L 60.984375 14.203125 
L 60.984375 0 
L 9.1875 0 
z
" id="DejaVuSans-Bold-76"/>
     </defs>
     <g transform="translate(952.301875 373.538625)scale(0.12 -0.12)">
      <use xlink:href="#DejaVuSans-Bold-67"/>
      <use x="73.388672" xlink:href="#DejaVuSans-Bold-104"/>
      <use x="144.580078" xlink:href="#DejaVuSans-Bold-97"/>
      <use x="212.060547" xlink:href="#DejaVuSans-Bold-110"/>
      <use x="283.251953" xlink:href="#DejaVuSans-Bold-99"/>
      <use x="342.529297" xlink:href="#DejaVuSans-Bold-101"/>
      <use x="410.351562" xlink:href="#DejaVuSans-Bold-32"/>
      <use x="445.166016" xlink:href="#DejaVuSans-Bold-76"/>
      <use x="508.886719" xlink:href="#DejaVuSans-Bold-101"/>
      <use x="576.708984" xlink:href="#DejaVuSans-Bold-118"/>
      <use x="641.894531" xlink:href="#DejaVuSans-Bold-101"/>
      <use x="709.716797" xlink:href="#DejaVuSans-Bold-108"/>
     </g>
    </g>
    <g id="line2d_41">
     <path d="M 1065.58375 369.338625 
L 1089.58375 369.338625 
" style="fill:none;stroke:#008000;stroke-dasharray:14.08,3.52,2.2,3.52;stroke-dashoffset:0;stroke-width:2.2;"/>
    </g>
    <g id="text_35">
     <!-- Allocentric North Perf. Mean -->
     <g transform="translate(1099.18375 373.538625)scale(0.12 -0.12)">
      <use xlink:href="#DejaVuSans-Bold-65"/>
      <use x="77.392578" xlink:href="#DejaVuSans-Bold-108"/>
      <use x="111.669922" xlink:href="#DejaVuSans-Bold-108"/>
      <use x="145.947266" xlink:href="#DejaVuSans-Bold-111"/>
      <use x="214.648438" xlink:href="#DejaVuSans-Bold-99"/>
      <use x="273.925781" xlink:href="#DejaVuSans-Bold-101"/>
      <use x="341.748047" xlink:href="#DejaVuSans-Bold-110"/>
      <use x="412.939453" xlink:href="#DejaVuSans-Bold-116"/>
      <use x="460.742188" xlink:href="#DejaVuSans-Bold-114"/>
      <use x="510.058594" xlink:href="#DejaVuSans-Bold-105"/>
      <use x="544.335938" xlink:href="#DejaVuSans-Bold-99"/>
      <use x="603.613281" xlink:href="#DejaVuSans-Bold-32"/>
      <use x="638.427734" xlink:href="#DejaVuSans-Bold-78"/>
      <use x="722.119141" xlink:href="#DejaVuSans-Bold-111"/>
      <use x="790.820312" xlink:href="#DejaVuSans-Bold-114"/>
      <use x="840.136719" xlink:href="#DejaVuSans-Bold-116"/>
      <use x="887.939453" xlink:href="#DejaVuSans-Bold-104"/>
      <use x="959.130859" xlink:href="#DejaVuSans-Bold-32"/>
      <use x="993.945312" xlink:href="#DejaVuSans-Bold-80"/>
      <use x="1067.236328" xlink:href="#DejaVuSans-Bold-101"/>
      <use x="1135.058594" xlink:href="#DejaVuSans-Bold-114"/>
      <use x="1184.375" xlink:href="#DejaVuSans-Bold-102"/>
      <use x="1227.802734" xlink:href="#DejaVuSans-Bold-46"/>
      <use x="1265.791016" xlink:href="#DejaVuSans-Bold-32"/>
      <use x="1300.605469" xlink:href="#DejaVuSans-Bold-77"/>
      <use x="1400.117188" xlink:href="#DejaVuSans-Bold-101"/>
      <use x="1467.939453" xlink:href="#DejaVuSans-Bold-97"/>
      <use x="1535.419922" xlink:href="#DejaVuSans-Bold-110"/>
     </g>
    </g>
    <g id="line2d_42">
     <path d="M 1315.976875 369.338625 
L 1339.976875 369.338625 
" style="fill:none;stroke:#a52a2a;stroke-dasharray:14.08,3.52,2.2,3.52;stroke-dashoffset:0;stroke-width:2.2;"/>
    </g>
    <g id="text_36">
     <!-- Allocentric South Perf. Mean -->
     <g transform="translate(1349.576875 373.538625)scale(0.12 -0.12)">
      <use xlink:href="#DejaVuSans-Bold-65"/>
      <use x="77.392578" xlink:href="#DejaVuSans-Bold-108"/>
      <use x="111.669922" xlink:href="#DejaVuSans-Bold-108"/>
      <use x="145.947266" xlink:href="#DejaVuSans-Bold-111"/>
      <use x="214.648438" xlink:href="#DejaVuSans-Bold-99"/>
      <use x="273.925781" xlink:href="#DejaVuSans-Bold-101"/>
      <use x="341.748047" xlink:href="#DejaVuSans-Bold-110"/>
      <use x="412.939453" xlink:href="#DejaVuSans-Bold-116"/>
      <use x="460.742188" xlink:href="#DejaVuSans-Bold-114"/>
      <use x="510.058594" xlink:href="#DejaVuSans-Bold-105"/>
      <use x="544.335938" xlink:href="#DejaVuSans-Bold-99"/>
      <use x="603.613281" xlink:href="#DejaVuSans-Bold-32"/>
      <use x="638.427734" xlink:href="#DejaVuSans-Bold-83"/>
      <use x="710.449219" xlink:href="#DejaVuSans-Bold-111"/>
      <use x="779.150391" xlink:href="#DejaVuSans-Bold-117"/>
      <use x="850.341797" xlink:href="#DejaVuSans-Bold-116"/>
      <use x="898.144531" xlink:href="#DejaVuSans-Bold-104"/>
      <use x="969.335938" xlink:href="#DejaVuSans-Bold-32"/>
      <use x="1004.150391" xlink:href="#DejaVuSans-Bold-80"/>
      <use x="1077.441406" xlink:href="#DejaVuSans-Bold-101"/>
      <use x="1145.263672" xlink:href="#DejaVuSans-Bold-114"/>
      <use x="1194.580078" xlink:href="#DejaVuSans-Bold-102"/>
      <use x="1238.007812" xlink:href="#DejaVuSans-Bold-46"/>
      <use x="1275.996094" xlink:href="#DejaVuSans-Bold-32"/>
      <use x="1310.810547" xlink:href="#DejaVuSans-Bold-77"/>
      <use x="1410.322266" xlink:href="#DejaVuSans-Bold-101"/>
      <use x="1478.144531" xlink:href="#DejaVuSans-Bold-97"/>
      <use x="1545.625" xlink:href="#DejaVuSans-Bold-110"/>
     </g>
    </g>
   </g>
  </g>
  <g id="text_37">
   <!-- Continual learning - only allocentric with switching start locations -->
   <defs>
    <path d="M 5.421875 35.890625 
L 36.078125 35.890625 
L 36.078125 21.6875 
L 5.421875 21.6875 
z
" id="DejaVuSans-Bold-45"/>
    <path d="M 3.515625 54.6875 
L 20.515625 54.6875 
L 29.6875 17 
L 38.921875 54.6875 
L 53.515625 54.6875 
L 62.703125 17.390625 
L 71.921875 54.6875 
L 88.921875 54.6875 
L 74.515625 0 
L 55.421875 0 
L 46.1875 37.59375 
L 37.015625 0 
L 17.921875 0 
z
" id="DejaVuSans-Bold-119"/>
   </defs>
   <g transform="translate(555.860625 19.3575)scale(0.16 -0.16)">
    <use xlink:href="#DejaVuSans-Bold-67"/>
    <use x="73.388672" xlink:href="#DejaVuSans-Bold-111"/>
    <use x="142.089844" xlink:href="#DejaVuSans-Bold-110"/>
    <use x="213.28125" xlink:href="#DejaVuSans-Bold-116"/>
    <use x="261.083984" xlink:href="#DejaVuSans-Bold-105"/>
    <use x="295.361328" xlink:href="#DejaVuSans-Bold-110"/>
    <use x="366.552734" xlink:href="#DejaVuSans-Bold-117"/>
    <use x="437.744141" xlink:href="#DejaVuSans-Bold-97"/>
    <use x="505.224609" xlink:href="#DejaVuSans-Bold-108"/>
    <use x="539.501953" xlink:href="#DejaVuSans-Bold-32"/>
    <use x="574.316406" xlink:href="#DejaVuSans-Bold-108"/>
    <use x="608.59375" xlink:href="#DejaVuSans-Bold-101"/>
    <use x="676.416016" xlink:href="#DejaVuSans-Bold-97"/>
    <use x="743.896484" xlink:href="#DejaVuSans-Bold-114"/>
    <use x="793.212891" xlink:href="#DejaVuSans-Bold-110"/>
    <use x="864.404297" xlink:href="#DejaVuSans-Bold-105"/>
    <use x="898.681641" xlink:href="#DejaVuSans-Bold-110"/>
    <use x="969.873047" xlink:href="#DejaVuSans-Bold-103"/>
    <use x="1041.455078" xlink:href="#DejaVuSans-Bold-32"/>
    <use x="1076.269531" xlink:href="#DejaVuSans-Bold-45"/>
    <use x="1117.773438" xlink:href="#DejaVuSans-Bold-32"/>
    <use x="1152.587891" xlink:href="#DejaVuSans-Bold-111"/>
    <use x="1221.289062" xlink:href="#DejaVuSans-Bold-110"/>
    <use x="1292.480469" xlink:href="#DejaVuSans-Bold-108"/>
    <use x="1326.757812" xlink:href="#DejaVuSans-Bold-121"/>
    <use x="1391.943359" xlink:href="#DejaVuSans-Bold-32"/>
    <use x="1426.757812" xlink:href="#DejaVuSans-Bold-97"/>
    <use x="1494.238281" xlink:href="#DejaVuSans-Bold-108"/>
    <use x="1528.515625" xlink:href="#DejaVuSans-Bold-108"/>
    <use x="1562.792969" xlink:href="#DejaVuSans-Bold-111"/>
    <use x="1631.494141" xlink:href="#DejaVuSans-Bold-99"/>
    <use x="1690.771484" xlink:href="#DejaVuSans-Bold-101"/>
    <use x="1758.59375" xlink:href="#DejaVuSans-Bold-110"/>
    <use x="1829.785156" xlink:href="#DejaVuSans-Bold-116"/>
    <use x="1877.587891" xlink:href="#DejaVuSans-Bold-114"/>
    <use x="1926.904297" xlink:href="#DejaVuSans-Bold-105"/>
    <use x="1961.181641" xlink:href="#DejaVuSans-Bold-99"/>
    <use x="2020.458984" xlink:href="#DejaVuSans-Bold-32"/>
    <use x="2055.273438" xlink:href="#DejaVuSans-Bold-119"/>
    <use x="2147.65625" xlink:href="#DejaVuSans-Bold-105"/>
    <use x="2181.933594" xlink:href="#DejaVuSans-Bold-116"/>
    <use x="2229.736328" xlink:href="#DejaVuSans-Bold-104"/>
    <use x="2300.927734" xlink:href="#DejaVuSans-Bold-32"/>
    <use x="2335.742188" xlink:href="#DejaVuSans-Bold-115"/>
    <use x="2395.263672" xlink:href="#DejaVuSans-Bold-119"/>
    <use x="2487.646484" xlink:href="#DejaVuSans-Bold-105"/>
    <use x="2521.923828" xlink:href="#DejaVuSans-Bold-116"/>
    <use x="2569.726562" xlink:href="#DejaVuSans-Bold-99"/>
    <use x="2629.003906" xlink:href="#DejaVuSans-Bold-104"/>
    <use x="2700.195312" xlink:href="#DejaVuSans-Bold-105"/>
    <use x="2734.472656" xlink:href="#DejaVuSans-Bold-110"/>
    <use x="2805.664062" xlink:href="#DejaVuSans-Bold-103"/>
    <use x="2877.246094" xlink:href="#DejaVuSans-Bold-32"/>
    <use x="2912.060547" xlink:href="#DejaVuSans-Bold-115"/>
    <use x="2971.582031" xlink:href="#DejaVuSans-Bold-116"/>
    <use x="3019.384766" xlink:href="#DejaVuSans-Bold-97"/>
    <use x="3086.865234" xlink:href="#DejaVuSans-Bold-114"/>
    <use x="3136.181641" xlink:href="#DejaVuSans-Bold-116"/>
    <use x="3183.984375" xlink:href="#DejaVuSans-Bold-32"/>
    <use x="3218.798828" xlink:href="#DejaVuSans-Bold-108"/>
    <use x="3253.076172" xlink:href="#DejaVuSans-Bold-111"/>
    <use x="3321.777344" xlink:href="#DejaVuSans-Bold-99"/>
    <use x="3381.054688" xlink:href="#DejaVuSans-Bold-97"/>
    <use x="3448.535156" xlink:href="#DejaVuSans-Bold-116"/>
    <use x="3496.337891" xlink:href="#DejaVuSans-Bold-105"/>
    <use x="3530.615234" xlink:href="#DejaVuSans-Bold-111"/>
    <use x="3599.316406" xlink:href="#DejaVuSans-Bold-110"/>
    <use x="3670.507812" xlink:href="#DejaVuSans-Bold-115"/>
   </g>
  </g>
 </g>
 <defs>
  <clipPath id="p742b52f232">
   <rect height="277.2" width="1674" x="44.261875" y="43.2"/>
  </clipPath>
 </defs>
</svg>
